<svg width="24" height="25" viewBox="0 0 24 25" fill="none" xmlns="http://www.w3.org/2000/svg">
<path d="M1.99963 9.98413V7.48413C1.99963 4.99413 4.00963 2.98413 6.49963 2.98413H8.99963" stroke="white" stroke-width="1.5" stroke-linecap="round" stroke-linejoin="round"/>
<path d="M14.9996 2.98413H17.4996C19.9896 2.98413 21.9996 4.99413 21.9996 7.48413V9.98413" stroke="white" stroke-width="1.5" stroke-linecap="round" stroke-linejoin="round"/>
<path d="M21.9996 16.9841V18.4841C21.9996 20.9741 19.9896 22.9841 17.4996 22.9841H15.9996" stroke="white" stroke-width="1.5" stroke-linecap="round" stroke-linejoin="round"/>
<path d="M8.99963 22.9841H6.49963C4.00963 22.9841 1.99963 20.9741 1.99963 18.4841V15.9841" stroke="white" stroke-width="1.5" stroke-linecap="round" stroke-linejoin="round"/>
<path d="M10.4996 7.98413V9.98413C10.4996 10.9841 9.99963 11.4841 8.99963 11.4841H6.99963C5.99963 11.4841 5.49963 10.9841 5.49963 9.98413V7.98413C5.49963 6.98413 5.99963 6.48413 6.99963 6.48413H8.99963C9.99963 6.48413 10.4996 6.98413 10.4996 7.98413Z" stroke="white" stroke-width="1.5" stroke-linecap="round" stroke-linejoin="round"/>
<path d="M13.4996 9.98413V7.98413C13.4996 6.98413 13.9996 6.48413 14.9996 6.48413H16.9996C17.9996 6.48413 18.4996 6.98413 18.4996 7.98413V9.98413C18.4996 10.9841 17.9996 11.4841 16.9996 11.4841" stroke="white" stroke-width="1.5" stroke-linecap="round" stroke-linejoin="round"/>
<path d="M6.99963 14.4841H8.99963C9.99963 14.4841 10.4996 14.9841 10.4996 15.9841V17.9841C10.4996 18.9841 9.99963 19.4841 8.99963 19.4841H6.99963C5.99963 19.4841 5.49963 18.9841 5.49963 17.9841" stroke="white" stroke-width="1.5" stroke-linecap="round" stroke-linejoin="round"/>
<path d="M18.4996 15.9841V17.9841C18.4996 18.9841 17.9996 19.4841 16.9996 19.4841H14.9996C13.9996 19.4841 13.4996 18.9841 13.4996 17.9841V15.9841C13.4996 14.9841 13.9996 14.4841 14.9996 14.4841H16.9996C17.9996 14.4841 18.4996 14.9841 18.4996 15.9841Z" stroke="white" stroke-width="1.5" stroke-linecap="round" stroke-linejoin="round"/>
</svg>
